<svg width="32" height="32" viewBox="0 0 32 32" fill="none" xmlns="http://www.w3.org/2000/svg">
<path d="M15.0905 6C15.701 6 16.2809 6.48414 16.6268 7.31886L24.2167 25.1152C24.471 25.6995 24.8576 26 25.2442 26H9.55587C9.16925 26 8.78264 25.6995 8.52829 25.1152L1.06054 7.61937C0.765497 6.93489 1.07072 6 1.56925 6H15.0905Z" fill="black"/>
<path d="M16.1688 8.77124H29.6799C30.1886 8.77124 30.4837 9.70613 30.1886 10.3906L25.651 21.0417C25.2949 21.8597 24.7252 22.3606 24.1147 22.3606H10.6036C10.0949 22.3606 9.79986 21.4257 10.0949 20.7412L14.6325 10.0901C14.9784 9.25538 15.5584 8.77124 16.1688 8.77124Z" fill="white"/>
<path d="M5.10974 10.2571C4.90626 10.0234 4.86556 9.5726 4.99782 9.25541L5.13008 8.93821C5.27252 8.60432 5.54722 8.53754 5.74053 8.75457C5.94401 8.9883 5.9847 9.43905 5.85244 9.75624L5.72018 10.0734C5.58792 10.4073 5.31322 10.4908 5.10974 10.2571Z" fill="white"/>
<path d="M6.28991 13.0283C6.08643 12.7945 6.04574 12.3438 6.178 12.0266L7.49045 8.95481C7.63288 8.62092 7.90758 8.55414 8.10089 8.77117C8.30437 9.0049 8.34507 9.45565 8.21281 9.77284L6.90035 12.8446C6.76809 13.1785 6.49339 13.262 6.28991 13.0283Z" fill="white"/>
<path d="M7.47009 15.7996C7.26661 15.5658 7.22591 15.1151 7.35817 14.7979L9.85081 8.95481C9.99325 8.62092 10.2679 8.55414 10.4613 8.77117C10.6647 9.0049 10.7054 9.45565 10.5732 9.77284L8.08053 15.6159C7.94827 15.9498 7.67357 16.0166 7.47009 15.7996Z" fill="white"/>
<path d="M8.65026 18.5708C8.44678 18.3371 8.40609 17.8864 8.53835 17.5692L12.2112 8.95481C12.3536 8.62092 12.6283 8.55414 12.8216 8.77117C13.0251 9.0049 13.0658 9.45565 12.9335 9.77284L9.26071 18.3872C9.12844 18.7044 8.85374 18.7879 8.65026 18.5708Z" fill="white"/>
<path d="M30.8703 11.5426C31.379 11.5426 31.674 12.4775 31.379 13.1619L26.2716 25.1152C26.0173 25.6995 25.6306 26 25.244 26H9.55566C9.94228 26 10.3289 25.6995 10.5832 25.1152L15.8127 12.8447C16.1688 12.0267 16.7385 11.5259 17.349 11.5259H30.8703V11.5426Z" fill="#404040"/>
<path d="M18.4277 11.5425L24.2269 25.1151C24.4813 25.6994 24.8679 25.9999 25.2545 25.9999C25.6411 25.9999 26.0277 25.6994 26.2821 25.1151L31.3793 13.1618C31.6743 12.4774 31.3691 11.5425 30.8706 11.5425H18.4277Z" fill="#636363"/>
</svg>
